<?xml version="1.0" encoding="UTF-8" standalone="no"?><!DOCTYPE svg PUBLIC "-//W3C//DTD SVG 1.1//EN" "http://www.w3.org/Graphics/SVG/1.1/DTD/svg11.dtd"><svg width="500" height="270" viewBox="0 0 500 270" version="1.1" xmlns="http://www.w3.org/2000/svg" xmlns:xlink="http://www.w3.org/1999/xlink" xml:space="preserve" style="fill-rule:evenodd;clip-rule:evenodd;stroke-linejoin:round;stroke-miterlimit:1.41421;"><path d="M275.628,187.961c22.561,0 40.851,18.365 40.851,41.019c0,22.655 -18.29,41.02 -40.851,41.02c-22.56,0 -40.851,-18.365 -40.851,-41.02c0,-22.654 18.291,-41.019 40.851,-41.019Zm0,68.585c15.161,0 27.452,-12.342 27.452,-27.566c0,-15.223 -12.291,-27.564 -27.452,-27.564c-15.161,0 -27.452,12.341 -27.452,27.564c0,15.224 12.291,27.566 27.452,27.566Zm-7.185,-49.53l-1.349,-1.969c2.667,-0.959 5.539,-1.485 8.534,-1.485c2.578,0 5.064,0.389 7.408,1.108l-1.303,2.012c5.328,1.505 9.853,4.927 12.793,9.48c0.108,-0.093 0.219,-0.181 0.306,-0.296l1.33,-1.742c2.97,4.13 4.735,9.19 4.775,14.663l-2.525,-0.68c-0.093,-0.025 -0.187,-0.041 -0.281,-0.052c0.001,0.129 0.008,0.256 0.008,0.386c0,5.485 -1.945,10.512 -5.181,14.428c0.233,0.264 0.515,0.479 0.848,0.598l2.092,0.742c-2.887,3.868 -6.846,6.879 -11.435,8.596l-0.112,-2.172c-0.022,-0.427 -0.176,-0.834 -0.428,-1.177c-2.568,1.024 -5.366,1.592 -8.297,1.592c-2.422,0 -4.752,-0.388 -6.938,-1.099c-0.188,0.311 -0.299,0.665 -0.309,1.033l-0.059,2.337c-4.89,-1.478 -9.157,-4.4 -12.308,-8.275l2.161,-0.831c0.31,-0.12 0.584,-0.311 0.807,-0.552c-3.521,-3.879 -5.708,-8.997 -5.853,-14.624c-0.072,0.012 -0.148,0.009 -0.219,0.03l-2.572,0.766c-0.009,-0.283 -0.022,-0.567 -0.022,-0.853c0,-5.113 1.509,-9.871 4.097,-13.858l1.448,1.795c0.075,0.095 0.159,0.182 0.248,0.261c2.718,-4.738 7.094,-8.391 12.336,-10.162Zm-44.913,35.617c-0.321,0.001 -0.599,0.214 -0.679,0.516l-5.895,0.323c0.096,-0.43 -0.239,-0.837 -0.688,-0.834l-216.326,0.624l32.989,-148.451l62.152,0c1.428,0 2.597,-1.147 2.597,-2.549l0,-71.703c0,-1.4 -1.168,-2.547 -2.597,-2.548l-45.085,0l2.857,-12.859c92.331,-0.294 172.448,-0.507 172.679,-0.376l1.245,0.707c0.73,0.416 1.56,0.634 2.404,0.634l3.386,0c1.435,0 2.598,-1.141 2.598,-2.548c0,-1.408 1.162,-2.549 2.597,-2.549l55.063,0c1.435,0 2.598,1.141 2.598,2.549l0,1.019c0,1.407 1.161,2.547 2.598,2.549l77.4,0c36.883,0 52.723,7.989 58.838,20.538c0.865,1.777 2.693,2.909 4.703,2.909l24.168,0c3.998,0.001 7.977,0.729 11.641,2.29c9.012,3.839 16.194,10.838 19.779,20.073c0.491,1.265 0.885,2.345 1.129,3.124c4.97,15.894 4.591,26.67 3.95,31.597c-0.24,1.836 -1.537,3.363 -3.335,3.919l-0.889,0.275c-1.378,0.812 -2.571,-1.223 -3.453,-2.539c-5.884,-8.785 -6.087,-32.543 -6.956,-34.661c-1.069,-2.608 -4.674,-4.965 -7.196,-7.302c-1.039,-0.963 -2.356,-1.59 -3.791,-1.791l-0.081,-0.011c-3.543,-0.497 -7.116,-0.743 -10.696,-0.736l-18.875,0.032c-0.531,0.001 -0.862,0.553 -0.607,1.009c17.404,31.101 23.145,103.794 23.145,103.794c0.14,1.978 0.755,3.894 1.794,5.594l2.243,3.667c1.076,1.761 1.515,16.775 1.803,18.809c0,0 7.366,30.846 -4.014,55.073c-1.481,3.151 -4.159,5.61 -7.49,6.778c-3.845,1.346 -7.896,2.036 -11.982,2.036l-123.663,0c-1.206,0 -2.224,-0.881 -2.375,-2.057l-2.682,-20.923c-1.557,-15.93 -11.617,-32.75 -25.043,-36.098l-1.643,-0.411c-11.836,-1.771 -25.352,-1.827 -35.8,0.062c-21.162,5.565 -25.665,26.634 -27.662,43.184l-2.516,16.215c-0.089,0.601 -0.612,1.046 -1.233,1.047l-3.104,0Zm210.242,-156.488l-41.206,0c-1.435,0.002 -2.597,1.142 -2.597,2.549l0,52.362c0,1.934 1.456,3.226 3.019,4.404c14.642,11.029 44.978,17.949 44.978,17.949c2.868,1.144 5.952,-1.098 5.671,-4.124l-6.519,-70.143c-0.158,-1.697 -1.607,-2.995 -3.346,-2.997Zm-59.214,-63.745l-127.789,0c-1.05,0.001 -1.905,0.841 -1.905,1.869l0,68.333c0,1.027 1.905,1.869 1.905,1.869c0,0 45.661,-0.148 66.572,3.264c27.591,4.504 50.954,11.9 62.169,13.897c1.031,0.183 1.904,-0.842 1.904,-1.869l-0.951,-85.494c0,-1.028 -0.857,-1.868 -1.905,-1.869Zm-154.802,-4.389l-110.128,0c-1.43,0.001 -2.597,1.148 -2.597,2.548l0,71.703c0,1.402 1.168,2.549 2.597,2.549l110.128,0c1.428,0 2.597,-1.147 2.597,-2.549l0,-71.703c0,-1.4 -1.167,-2.547 -2.597,-2.548Zm169.174,50.633c0,0.935 0.779,1.699 1.731,1.699l45.868,0c0.198,0 0.336,-0.16 0.305,-0.352c-1.602,-10.248 -4.387,-18.369 -7.913,-24.794l-7.438,0c-1.333,0 -2.424,-1.071 -2.424,-2.379l0,-10.143c-10.155,-8.924 -22.365,-10.719 -31.536,-10.191c-0.364,0.02 -0.671,0.243 -0.671,0.6l2.078,45.56Z"/></svg>