<?xml version="1.0" encoding="UTF-8" standalone="no"?><!DOCTYPE svg PUBLIC "-//W3C//DTD SVG 1.1//EN" "http://www.w3.org/Graphics/SVG/1.1/DTD/svg11.dtd"><svg width="150" height="150" viewBox="0 0 150 150" version="1.1" xmlns="http://www.w3.org/2000/svg" xmlns:xlink="http://www.w3.org/1999/xlink" xml:space="preserve" style="fill-rule:evenodd;clip-rule:evenodd;stroke-linejoin:round;stroke-miterlimit:1.41421;"><path d="M75.242,0c41.283,0.131 74.758,33.687 74.758,75c0,41.394 -33.606,75 -75,75c-41.394,0 -75,-33.606 -75,-75c0,-41.313 33.475,-74.869 74.758,-75l0.242,0l0.242,0Zm17.448,103l-35.38,0c3.356,19.025 10.022,32 17.69,32c7.668,0 14.334,-12.975 17.69,-32Zm-50.166,0l-20.594,0c6.38,12.057 16.749,21.685 29.345,27.119c-3.783,-7.48 -6.795,-16.724 -8.751,-27.119Zm85.546,0l-20.594,0c-1.956,10.395 -4.968,19.639 -8.751,27.119c12.596,-5.434 22.965,-15.062 29.345,-27.119Zm-87.545,-41l-24.11,0c-0.927,4.186 -1.415,8.537 -1.415,13c0,4.463 0.488,8.814 1.415,13l24.11,0c-0.345,-4.223 -0.525,-8.567 -0.525,-13c0,-4.433 0.18,-8.777 0.525,-13Zm54.003,0l-39.056,0c-0.309,4.186 -0.472,8.537 -0.472,13c0,4.463 0.163,8.814 0.472,13l39.056,0c0.309,-4.186 0.472,-8.537 0.472,-13c0,-4.463 -0.163,-8.814 -0.472,-13Zm39.057,0l-24.11,0c0.345,4.223 0.525,8.567 0.525,13c0,4.433 -0.18,8.777 -0.525,13l24.11,0c0.927,-4.186 1.415,-8.537 1.415,-13c0,-4.463 -0.488,-8.814 -1.415,-13Zm-82.31,-42.119c-12.596,5.434 -22.965,15.062 -29.345,27.119l20.594,0c1.956,-10.395 4.968,-19.639 8.751,-27.119Zm41.415,27.119c-3.356,-19.025 -10.022,-32 -17.69,-32c-7.668,0 -14.334,12.975 -17.69,32l35.38,0Zm6.035,-27.119c3.783,7.48 6.795,16.724 8.751,27.119l20.594,0c-6.38,-12.057 -16.749,-21.685 -29.345,-27.119Z" style="fill:#fff;"/></svg>