<?xml version="1.0" encoding="UTF-8" standalone="no"?><!DOCTYPE svg PUBLIC "-//W3C//DTD SVG 1.1//EN" "http://www.w3.org/Graphics/SVG/1.1/DTD/svg11.dtd"><svg width="150" height="150" viewBox="0 0 150 150" version="1.1" xmlns="http://www.w3.org/2000/svg" xmlns:xlink="http://www.w3.org/1999/xlink" xml:space="preserve" style="fill-rule:evenodd;clip-rule:evenodd;stroke-linejoin:round;stroke-miterlimit:1.41421;"><path d="M33.75,0c6.209,0 11.25,5.041 11.25,11.25l0,127.5c0,6.209 -5.041,11.25 -11.25,11.25l-22.5,0c-6.209,0 -11.25,-5.041 -11.25,-11.25l0,-127.5c0,-6.209 5.041,-11.25 11.25,-11.25l22.5,0Zm104.55,135l-78.3,0l0,-120l78.3,0c6.458,0 11.7,5.243 11.7,11.7l0,96.6c0,6.457 -5.242,11.7 -11.7,11.7Zm-33.3,-36l-9,0c-1.656,0 -3,1.344 -3,3l0,9c0,1.656 1.344,3 3,3l9,0c1.656,0 3,-1.344 3,-3l0,-9c0,-1.656 -1.344,-3 -3,-3Zm-21,-21l-9,0c-1.656,0 -3,1.344 -3,3l0,9c0,1.656 1.344,3 3,3l9,0c1.656,0 3,-1.344 3,-3l0,-9c0,-1.656 -1.344,-3 -3,-3Zm21,0l-9,0c-1.656,0 -3,1.344 -3,3l0,9c0,1.656 1.344,3 3,3l9,0c1.656,0 3,-1.344 3,-3l0,-9c0,-1.656 -1.344,-3 -3,-3Zm21,0l-9,0c-1.656,0 -3,1.344 -3,3l0,9c0,1.656 1.344,3 3,3l9,0c1.656,0 3,-1.344 3,-3l0,-9c0,-1.656 -1.344,-3 -3,-3Zm-42,-21l-9,0c-1.656,0 -3,1.344 -3,3l0,9c0,1.656 1.344,3 3,3l9,0c1.656,0 3,-1.344 3,-3l0,-9c0,-1.656 -1.344,-3 -3,-3Zm21,0l-9,0c-1.656,0 -3,1.344 -3,3l0,9c0,1.656 1.344,3 3,3l9,0c1.656,0 3,-1.344 3,-3l0,-9c0,-1.656 -1.344,-3 -3,-3Zm21,0l-9,0c-1.656,0 -3,1.344 -3,3l0,9c0,1.656 1.344,3 3,3l9,0c1.656,0 3,-1.344 3,-3l0,-9c0,-1.656 -1.344,-3 -3,-3Zm-42,-21l-9,0c-1.656,0 -3,1.344 -3,3l0,9c0,1.656 1.344,3 3,3l9,0c1.656,0 3,-1.344 3,-3l0,-9c0,-1.656 -1.344,-3 -3,-3Zm21,0l-9,0c-1.656,0 -3,1.344 -3,3l0,9c0,1.656 1.344,3 3,3l9,0c1.656,0 3,-1.344 3,-3l0,-9c0,-1.656 -1.344,-3 -3,-3Zm21,0l-9,0c-1.656,0 -3,1.344 -3,3l0,9c0,1.656 1.344,3 3,3l9,0c1.656,0 3,-1.344 3,-3l0,-9c0,-1.656 -1.344,-3 -3,-3Z" style="fill:#fff;"/></svg>