<?xml version="1.0" encoding="UTF-8" standalone="no"?><!DOCTYPE svg PUBLIC "-//W3C//DTD SVG 1.1//EN" "http://www.w3.org/Graphics/SVG/1.1/DTD/svg11.dtd"><svg width="500" height="500" viewBox="0 0 500 500" version="1.1" xmlns="http://www.w3.org/2000/svg" xmlns:xlink="http://www.w3.org/1999/xlink" xml:space="preserve" xmlns:serif="http://www.serif.com/" style="fill-rule:evenodd;clip-rule:evenodd;stroke-linejoin:round;stroke-miterlimit:1.41421;"><path d="M250,493c134.116,0 243,-108.884 243,-243c0,-134.116 -108.884,-243 -243,-243c-134.116,0 -243,108.884 -243,243c0,134.116 108.884,243 243,243Z"/><path d="M250,0c137.979,0 250,112.021 250,250c0,137.979 -112.021,250 -250,250c-137.979,0 -250,-112.021 -250,-250c0,-137.979 112.021,-250 250,-250Z" style="fill:#ffc809;"/><circle cx="266.857" cy="136.55" r="33.143"/><path d="M226.733,234.079c5.865,-24.642 -23.333,-7.622 -31.054,-13.456c-10.131,-7.656 9.735,-24.843 38.3,-24.843c28.565,0 50.19,13.059 44.51,38.299c-0.008,0.036 -0.016,0.071 -0.025,0.106l0.025,-0.106l-31.054,124.215c-5.865,24.642 23.334,7.622 31.054,13.456c10.131,7.656 -9.735,24.843 -38.3,24.843c-28.565,0 -50.19,-13.059 -44.51,-38.299c0.008,-0.036 0.017,-0.071 0.025,-0.106l31.029,-124.109Z"/></svg>