<?xml version="1.0" encoding="UTF-8" standalone="no"?><!DOCTYPE svg PUBLIC "-//W3C//DTD SVG 1.1//EN" "http://www.w3.org/Graphics/SVG/1.1/DTD/svg11.dtd"><svg width="50" height="50" viewBox="0 0 50 50" version="1.1" xmlns="http://www.w3.org/2000/svg" xmlns:xlink="http://www.w3.org/1999/xlink" xml:space="preserve" style="fill-rule:evenodd;clip-rule:evenodd;stroke-linejoin:round;stroke-miterlimit:1.41421;"><path d="M25,47c1.848,0 3.52,-1.144 4.224,-2.728l9.24,-16.016c1.76,-2.552 2.728,-5.632 2.728,-8.976c0,-9.064 -7.216,-16.28 -16.192,-16.28c-8.976,0 -16.192,7.216 -16.192,16.192c0,3.344 0.968,6.424 2.728,8.976l9.24,16.016c0.704,1.672 2.376,2.816 4.224,2.816Z" style="fill:#1c81c3;"/><rect x="18.488" y="12.768" width="12.936" height="12.936" style="fill:#ebebeb;"/><path d="M24,3.03c0.331,-0.02 0.664,-0.03 1,-0.03c8.976,0 16.192,7.216 16.192,16.28c0,3.344 -0.968,6.424 -2.728,8.976l-9.24,16.016c-0.704,1.584 -2.376,2.728 -4.224,2.728c-0.341,0 -0.675,-0.039 -0.999,-0.113c1.432,-0.325 2.649,-1.324 3.223,-2.615l9.24,-16.016c1.76,-2.552 2.728,-5.632 2.728,-8.976c0,-8.725 -6.686,-15.737 -15.192,-16.25Z" style="fill-opacity:0.2;"/></svg>