<?xml version="1.0" encoding="UTF-8" standalone="no"?><!DOCTYPE svg PUBLIC "-//W3C//DTD SVG 1.1//EN" "http://www.w3.org/Graphics/SVG/1.1/DTD/svg11.dtd"><svg width="50" height="50" viewBox="0 0 50 50" version="1.1" xmlns="http://www.w3.org/2000/svg" xmlns:xlink="http://www.w3.org/1999/xlink" xml:space="preserve" style="fill-rule:evenodd;clip-rule:evenodd;stroke-linejoin:round;stroke-miterlimit:1.41421;"><path d="M33.248,35.001c0.327,0.002 0.653,0.005 0.978,0.011c0.64,0.012 1.273,0.034 1.895,0.065c1.967,0.1 3.827,0.298 5.485,0.584c2.059,0.356 3.801,0.847 5.1,1.436c1.111,0.505 1.894,1.079 2.307,1.693c0.837,1.243 0.146,2.644 -1.974,3.894c-0.504,0.297 -1.087,0.585 -1.744,0.86c-0.327,0.137 -0.674,0.27 -1.034,0.401l-0.032,0.011l-11.638,4.738l0.018,-0.009c-0.079,0.037 -0.079,0.037 -0.161,0.074c-0.083,0.037 -0.083,0.037 -0.169,0.073c-0.145,0.059 -0.294,0.117 -0.454,0.173c-0.377,0.133 -0.797,0.257 -1.249,0.367c-1.338,0.328 -2.951,0.544 -4.567,0.608c-0.677,0.027 -1.35,0.027 -1.998,0c-0.723,-0.03 -1.412,-0.093 -2.039,-0.186c-0.731,-0.109 -1.376,-0.258 -1.903,-0.439c-0.418,-0.144 -0.761,-0.308 -1.014,-0.487c-0.104,-0.073 -0.189,-0.148 -0.264,-0.225l0.015,0.017l-6.574,-4.73c-0.057,-0.033 -0.111,-0.066 -0.166,-0.099c-0.212,-0.132 -0.407,-0.266 -0.578,-0.405c-0.325,-0.262 -0.573,-0.537 -0.74,-0.818c-0.732,-1.234 0.069,-2.61 2.207,-3.833c1.143,-0.654 2.663,-1.263 4.463,-1.789c1.909,-0.559 4.125,-1.022 6.497,-1.358c1.897,-0.268 3.888,-0.455 5.882,-0.551c0.656,-0.031 1.312,-0.053 1.965,-0.065c0.331,-0.006 0.661,-0.009 0.99,-0.011c0.248,-0.001 0.248,-0.001 0.496,0Z" style="fill:#232323;fill-opacity:0.4;fill-rule:nonzero;"/><path d="M25.248,0.001c0.328,0.007 0.656,0.017 0.984,0.038c0.646,0.04 1.291,0.113 1.93,0.219c2.021,0.332 3.985,0.991 5.797,1.946c2.249,1.185 4.253,2.822 5.865,4.787c1.38,1.681 2.47,3.596 3.21,5.641c1.501,4.145 1.556,8.815 0.103,12.981c-0.345,0.991 -0.775,1.951 -1.285,2.868c-0.254,0.456 -0.53,0.9 -0.82,1.334l-0.026,0.039l-9.112,15.793l0.014,-0.03c-0.06,0.124 -0.059,0.124 -0.122,0.247c-0.064,0.122 -0.063,0.122 -0.13,0.242c-0.113,0.198 -0.232,0.391 -0.361,0.579c-0.307,0.443 -0.661,0.854 -1.054,1.223c-1.163,1.092 -2.661,1.813 -4.243,2.025c-0.662,0.089 -1.336,0.089 -1.998,0c-0.738,-0.1 -1.461,-0.31 -2.138,-0.621c-0.788,-0.361 -1.514,-0.858 -2.137,-1.461c-0.495,-0.48 -0.925,-1.028 -1.274,-1.623c-0.142,-0.243 -0.267,-0.494 -0.384,-0.75l0.024,0.055l-9.097,-15.767c-0.074,-0.109 -0.146,-0.219 -0.218,-0.329c-0.282,-0.44 -0.549,-0.889 -0.794,-1.35c-0.466,-0.876 -0.859,-1.789 -1.176,-2.728c-1.391,-4.113 -1.324,-8.699 0.162,-12.775c0.795,-2.181 1.99,-4.211 3.509,-5.965c1.611,-1.862 3.58,-3.407 5.773,-4.526c1.754,-0.895 3.645,-1.516 5.588,-1.836c0.639,-0.105 1.284,-0.178 1.93,-0.218c0.328,-0.021 0.656,-0.031 0.984,-0.038c0.248,-0.001 0.248,-0.001 0.496,0Z" style="fill:#232323;fill-rule:nonzero;"/></svg>