<?xml version="1.0" encoding="UTF-8" standalone="no"?><!DOCTYPE svg PUBLIC "-//W3C//DTD SVG 1.1//EN" "http://www.w3.org/Graphics/SVG/1.1/DTD/svg11.dtd"><svg width="1000" height="1000" viewBox="0 0 1000 1000" version="1.1" xmlns="http://www.w3.org/2000/svg" xmlns:xlink="http://www.w3.org/1999/xlink" xml:space="preserve" style="fill-rule:evenodd;clip-rule:evenodd;stroke-linejoin:round;stroke-miterlimit:1.41421;"><circle id="Mask" cx="500" cy="500" r="500" style="fill:#ffb909;"/><clipPath id="_clip1"><circle cx="500" cy="500" r="500"/></clipPath><g clip-path="url(#_clip1)"><circle cx="500" cy="500" r="400" style="fill:#464646;"/><g><g style="filter:url(#_Effect2);"><circle cx="500" cy="500" r="260" style="fill-opacity:0.2;"/></g></g><circle cx="500" cy="500" r="260" style="fill:url(#_Radial3);"/><circle cx="500" cy="500" r="260" style="fill:url(#_Radial4);"/><g><g style="filter:url(#_Effect5);"><path d="M331.185,890.652l145.893,-52.761c-13.094,-103.173 -21.555,-234.418 -21.555,-262.693c0,-2.452 0.064,-4.881 0.189,-7.282l-203.202,15.255l-92.107,6.915c-0.266,-3.531 -0.403,-7.133 -0.403,-10.791c0,-42.101 14.127,-73.174 51.102,-84.893l244.515,-89.769c-2.244,-54.266 -3.468,-95.879 -3.468,-113.63c0,-81.685 25.922,-148.003 57.851,-148.003c31.929,0 57.851,66.318 57.851,148.003c0,17.751 -1.224,59.364 -3.468,113.63l244.515,89.769c36.975,11.719 51.102,42.792 51.102,84.893c0,3.658 -0.137,7.26 -0.403,10.791l-295.309,-22.17c0.125,2.401 0.189,4.83 0.189,7.282c0,28.275 -8.461,159.52 -21.555,262.693l145.893,52.761c-54.509,24.816 -115.06,38.643 -178.815,38.643c-63.755,0 -124.306,-13.827 -178.815,-38.643Z" style="fill-opacity:0.4;"/></g></g><path d="M321.185,880.652l145.893,-52.761c-13.094,-103.173 -21.555,-234.418 -21.555,-262.693c0,-2.452 0.064,-4.881 0.189,-7.282l-203.202,15.255l-92.107,6.915c-0.266,-3.531 -0.403,-7.133 -0.403,-10.791c0,-42.101 14.127,-73.174 51.102,-84.893l244.515,-89.769c-2.244,-54.266 -3.468,-95.879 -3.468,-113.63c0,-81.685 25.922,-148.003 57.851,-148.003c31.929,0 57.851,66.318 57.851,148.003c0,17.751 -1.224,59.364 -3.468,113.63l244.515,89.769c36.975,11.719 51.102,42.792 51.102,84.893c0,3.658 -0.137,7.26 -0.403,10.791l-295.309,-22.17c0.125,2.401 0.189,4.83 0.189,7.282c0,28.275 -8.461,159.52 -21.555,262.693l145.893,52.761c-54.509,24.816 -115.06,38.643 -178.815,38.643c-63.755,0 -124.306,-13.827 -178.815,-38.643Z" style="fill:#fff;"/><g><g style="filter:url(#_Effect6);"><path d="M500,0c275.958,0 500,224.042 500,500c0,275.958 -224.042,500 -500,500c-275.958,0 -500,-224.042 -500,-500c0,-275.958 224.042,-500 500,-500Zm0,100c220.766,0 400,179.234 400,400c0,220.766 -179.234,400 -400,400c-220.766,0 -400,-179.234 -400,-400c0,-220.766 179.234,-400 400,-400Z" style="fill-opacity:0.6;"/></g></g><path d="M500,0c275.958,0 500,224.042 500,500c0,275.958 -224.042,500 -500,500c-275.958,0 -500,-224.042 -500,-500c0,-275.958 224.042,-500 500,-500Zm0,100c220.766,0 400,179.234 400,400c0,220.766 -179.234,400 -400,400c-220.766,0 -400,-179.234 -400,-400c0,-220.766 179.234,-400 400,-400Z" style="fill:url(#_Radial7);"/></g><defs><filter id="_Effect2" filterUnits="userSpaceOnUse" x="150" y="150" width="700" height="700"><feGaussianBlur in="SourceGraphic" stdDeviation="15"/></filter><radialGradient id="_Radial3" cx="0" cy="0" r="1" gradientUnits="userSpaceOnUse" gradientTransform="matrix(260,0,0,260,500,500)"><stop offset="0" style="stop-color:#ddd;stop-opacity:1"/><stop offset="0.8" style="stop-color:#939598;stop-opacity:1"/><stop offset="1" style="stop-color:#7f7f7f;stop-opacity:1"/></radialGradient><radialGradient id="_Radial4" cx="0" cy="0" r="1" gradientUnits="userSpaceOnUse" gradientTransform="matrix(292,4,-4,292,517,518)"><stop offset="0" style="stop-color:#000;stop-opacity:0"/><stop offset="0.85" style="stop-color:#000;stop-opacity:0"/><stop offset="1" style="stop-color:#000;stop-opacity:0.4"/></radialGradient><filter id="_Effect5" filterUnits="userSpaceOnUse" x="73.2231" y="56.2231" width="873.554" height="959.848"><feGaussianBlur in="SourceGraphic" stdDeviation="14.4628"/></filter><filter id="_Effect6" filterUnits="userSpaceOnUse" x="-90" y="-90" width="1180" height="1180"><feGaussianBlur in="SourceGraphic" stdDeviation="15"/></filter><radialGradient id="_Radial7" cx="0" cy="0" r="1" gradientUnits="userSpaceOnUse" gradientTransform="matrix(500,0,0,500,487,474)"><stop offset="0" style="stop-color:#fff;stop-opacity:1"/><stop offset="0.5" style="stop-color:#fff;stop-opacity:1"/><stop offset="0.88" style="stop-color:#ffbf1f;stop-opacity:1"/><stop offset="1" style="stop-color:#ffb909;stop-opacity:1"/></radialGradient></defs></svg>